<svg width="28" height="15" viewBox="0 0 28 15" fill="none" xmlns="http://www.w3.org/2000/svg">
<line x1="0.5" y1="2" x2="0.5" y2="13" stroke="#787A80" stroke-linecap="round"/>
<path d="M20.6665 3.83268C20.6665 3.46449 20.368 3.16602 19.9998 3.16602C19.6316 3.16602 19.3332 3.46449 19.3332 3.83268V7.49935C19.3332 7.67616 19.4034 7.84573 19.5284 7.97075L21.5284 9.97075C21.7888 10.2311 22.2109 10.2311 22.4712 9.97075C22.7316 9.7104 22.7316 9.28829 22.4712 9.02794L20.6665 7.22321V3.83268Z" fill="#787A80"/>
<path fill-rule="evenodd" clip-rule="evenodd" d="M19.9998 0.166016C15.9497 0.166016 12.6665 3.44926 12.6665 7.49935C12.6665 11.5494 15.9497 14.8327 19.9998 14.8327C24.0499 14.8327 27.3332 11.5494 27.3332 7.49935C27.3332 3.44926 24.0499 0.166016 19.9998 0.166016ZM13.9998 7.49935C13.9998 4.18564 16.6861 1.49935 19.9998 1.49935C23.3135 1.49935 25.9998 4.18564 25.9998 7.49935C25.9998 10.8131 23.3135 13.4993 19.9998 13.4993C16.6861 13.4993 13.9998 10.8131 13.9998 7.49935Z" fill="#787A80"/>
</svg>
