<svg width="28" height="15" viewBox="0 0 28 15" fill="none" xmlns="http://www.w3.org/2000/svg">
<line x1="0.5" y1="2" x2="0.5" y2="13" stroke="#787A80" stroke-linecap="round"/>
<path fill-rule="evenodd" clip-rule="evenodd" d="M17.0002 0.333984C17.3684 0.333984 17.6668 0.632461 17.6668 1.00065V1.33399L22.3335 1.334V1.00065C22.3335 0.632462 22.632 0.333985 23.0002 0.333984C23.3684 0.333984 23.6668 0.632461 23.6668 1.00065V1.334L24.5002 1.33401C25.9729 1.33401 27.1668 2.52792 27.1668 4.00067V12.0006C27.1668 13.4734 25.9729 14.6673 24.5002 14.6673L15.5002 14.6673C14.0274 14.6673 12.8335 13.4734 12.8335 12.0007L12.8335 5.50078L12.8335 4.00065C12.8335 2.52789 14.0274 1.33398 15.5002 1.33399L16.3335 1.33399V1.00065C16.3335 0.632461 16.632 0.333984 17.0002 0.333984ZM16.3335 2.66732L15.5002 2.66732C14.7638 2.66732 14.1668 3.26427 14.1668 4.00065V4.83398H25.8335V4.00067C25.8335 3.26429 25.2365 2.66734 24.5002 2.66734L23.6668 2.66734V3.00065C23.6668 3.36884 23.3684 3.66732 23.0002 3.66732C22.632 3.66732 22.3335 3.36884 22.3335 3.00065V2.66734L17.6668 2.66733V3.00065C17.6668 3.36884 17.3684 3.66732 17.0002 3.66732C16.632 3.66732 16.3335 3.36884 16.3335 3.00065V2.66732ZM25.8335 6.16732H14.1668L14.1668 12.0007C14.1668 12.737 14.7638 13.334 15.5002 13.334L24.5002 13.334C25.2365 13.334 25.8335 12.737 25.8335 12.0006V6.16732Z" fill="#787A80"/>
</svg>
